<?xml version="1.0" encoding="utf-8"?>
<!-- Generator: Adobe Illustrator 24.3.0, SVG Export Plug-In . SVG Version: 6.00 Build 0)  -->
<svg version="1.1" id="_x34_57bf273-24a3-4fd8-a857-e9b918267d6a"
	 xmlns="http://www.w3.org/2000/svg" xmlns:xlink="http://www.w3.org/1999/xlink" x="0px" y="0px" viewBox="0 0 698 698"
	 style="enable-background:new 0 0 698 698;" xml:space="preserve">
<style type="text/css">
	.st0{opacity:0.5;}
	.st1{fill:url(#SVGID_1_);}
	.st2{fill:#F5F5F5;}
	.st3{fill:#545454;}
	.st4{fill:#333333;}
	.st5{opacity:0.1;enable-background:new    ;}
	.st6{fill:#FDB797;}
</style>
<g class="st0">
	
		<linearGradient id="SVGID_1_" gradientUnits="userSpaceOnUse" x1="349" y1="-0.1102" x2="349" y2="697.8898" gradientTransform="matrix(1 0 0 -1 0 697.8898)">
		<stop  offset="0" style="stop-color:#808080;stop-opacity:0.25"/>
		<stop  offset="0.54" style="stop-color:#808080;stop-opacity:0.12"/>
		<stop  offset="1" style="stop-color:#808080;stop-opacity:0.1"/>
	</linearGradient>
	<circle class="st1" cx="349" cy="349" r="349"/>
</g>
<circle class="st2" cx="349.68" cy="346.77" r="341.64"/>
<path class="st3" d="M350,689.76c66.76,0.11,132.07-19.44,187.79-56.2c-12.59-68.8-60.5-72.72-60.5-72.72h-264.2
	c0,0-45.21,3.71-59.33,67C211.21,668.25,279.76,689.88,350,689.76z"/>
<circle class="st4" cx="346.37" cy="339.57" r="164.9"/>
<path class="st5" d="M293.15,476.92h105.66l0,0v84.53c0,29.17-23.64,52.82-52.81,52.83l0,0c-29.18,0-52.83-23.65-52.83-52.83
	c0,0,0,0,0,0v-84.53l0,0H293.15z"/>
<path class="st6" d="M296.5,473h99c1.85,0,3.35,1.5,3.35,3.35l0,0v81.18c0.01,29.18-23.64,52.83-52.82,52.84c-0.01,0-0.02,0-0.03,0
	l0,0c-29.18,0-52.83-23.65-52.83-52.83c0,0,0,0,0,0v-81.19C293.17,474.51,294.66,473.01,296.5,473z"/>
<path class="st5" d="M293.34,516.82c34.05,12.72,71.54,12.83,105.66,0.29v-13H293.34V516.82z"/>
<circle class="st6" cx="346.37" cy="372.44" r="151.45"/>
<path class="st5" d="M238.49,234.68c0,0,63.83,129.56,243.88,54.32l-41.92-65.73l-74.31-26.67L238.49,234.68z"/>
<path class="st4" d="M238.49,232.78c0,0,63.83,129.56,243.88,54.3l-41.92-65.73l-74.31-26.67L238.49,232.78z"/>
<path class="st4" d="M237.93,224c4.3-13.32,11.74-25.42,21.69-35.27c29.79-29.45,78.63-35.66,103.68-69.24
	c6,9.32,1.36,23.65-9,27.65c24-0.16,51.81-2.26,65.38-22c6.85,15.94,3.9,34.39-7.57,47.4c21.27,1,44,15.4,45.34,36.65
	c0.92,14.16-8,27.56-19.59,35.68s-25.71,11.85-39.56,14.9C357.86,268.7,211.54,306.07,237.93,224z"/>
<ellipse class="st6" cx="194.86" cy="372.3" rx="14.09" ry="26.42"/>
<ellipse class="st6" cx="497.8" cy="372.3" rx="14.09" ry="26.42"/>
</svg>
