<?xml version="1.0" encoding="utf-8"?>
<!-- Generator: Adobe Illustrator 24.3.0, SVG Export Plug-In . SVG Version: 6.00 Build 0)  -->
<svg version="1.1" id="katman_1" xmlns="http://www.w3.org/2000/svg" xmlns:xlink="http://www.w3.org/1999/xlink" x="0px" y="0px"
	 viewBox="0 0 1400 1700" style="enable-background:new 0 0 1400 1700;" xml:space="preserve">
<style type="text/css">
	.st0{fill:#9DE0C9;}
	.st1{fill:#FF954F;}
</style>
<path class="st0" d="M963.94,1699.9c0.59-0.26,1.18-0.76,1.77-0.76c17.78-0.05,35.56-0.06,53.34-0.07c-0.06,0.27-0.1,0.55-0.12,0.83
	C1000.61,1699.9,982.28,1699.9,963.94,1699.9z"/>
<path class="st1" d="M1395.79,1700.19c-0.62-4.95-0.69-18.96-1.16-23.94c-3.63-38.13-9.56-75.89-17.62-113.34
	c-20-92.89-51.39-181.63-96.24-265.48c-53.78-100.54-124-187.55-213.46-258.63c-85.69-68.08-181.96-115.58-286.6-146.56
	c-129.5-38.33-244.51-102.98-347.16-190.25c-64.61-54.93-122.08-116.64-173.43-184.05C150.46,373.99,69.81,214.88,13.04,43.37
	C8.51,29.69,4.4,15.87,0.09,2.12c0,339.37,0,678.73,0,1018.1H0v678.86h824.48c0.16,0.27,0.33,0.55,0.49,0.83L1395.79,1700.19z"/>
</svg>
